P1
140 36
00000000000000000000000000000000000000000000000000000000000000000000000000000000000000000000000000000000000000000000000000000000000000000000
00000000000000000000000000000000000000000000000000000000000000000000000000000000000000000000000000000000000000000000000000000000000000000000
00000000000000000000000000000000000000000000000000000000000000000000000000000000000000000000000000000000000000000000000000000000000000000000
00011001100001111000011000011000011110011111111001100110000001111001100110011000011111100110011000000001100000011000011111100001100110011000
00011001100001111000011000011000011110011111111001100110000001111001100110011000011111100110011000000001100000011000011111100001100110011000
00011001100001111000011000011000011110011111111001100110000001111001100110011000011111100110011000000001100000011000011111100001100110011000
00011001100001111000011000011000011110011111111001100110000001111001100110011000011111100110011000000001100000011000011111100001100110011000
00011001100001111000011000011000011110011111111001100110000001111001100110011000011111100110011000000001100000011000011111100001100110011000
00011001100001111000011000011000011110011111111001100110000001111001100110011000011111100110011000000001100000011000011111100001100110011000
00011001100001111000011000011000011110011111111001100110000001111001100110011000011111100110011000000001100000011000011111100001100110011000
00011001100001111000011000011000011110011111111001100110000001111001100110011000011111100110011000000001100000011000011111100001100110011000
00011001100001111000011000011000011110011111111001100110000001111001100110011000011111100110011000000001100000011000011111100001100110011000
00011001100001111000011000011000011110011111111001100110000001111001100110011000011111100110011000000001100000011000011111100001100110011000
00011001100001111000011000011000011110011111111001100110000001111001100110011000011111100110011000000001100000011000011111100001100110011000
00011001100001111000011000011000011110011111111001100110000001111001100110011000011111100110011000000001100000011000011111100001100110011000
00011001100001111000011000011000011110011111111001100110000001111001100110011000011111100110011000000001100000011000011111100001100110011000
00011001100001111000011000011000011110011111111001100110000001111001100110011000011111100110011000000001100000011000011111100001100110011000
00011001100001111000011000011000011110011111111001100110000001111001100110011000011111100110011000000001100000011000011111100001100110011000
00011001100001111000011000011000011110011111111001100110000001111001100110011000011111100110011000000001100000011000011111100001100110011000
00011001100001111000011000011000011110011111111001100110000001111001100110011000011111100110011000000001100000011000011111100001100110011000
00011001100001111000011000011000011110011111111001100110000001111001100110011000011111100110011000000001100000011000011111100001100110011000
00011001100001111000011000011000011110011111111001100110000001111001100110011000011111100110011000000001100000011000011111100001100110011000
00011001100001111000011000011000011110011111111001100110000001111001100110011000011111100110011000000001100000011000011111100001100110011000
00011001100001111000011000011000011110011111111001100110000001111001100110011000011111100110011000000001100000011000011111100001100110011000
00011001100001111000011000011000011110011111111001100110000001111001100110011000011111100110011000000001100000011000011111100001100110011000
00011001100001111000011000011000011110011111111001100110000001111001100110011000011111100110011000000001100000011000011111100001100110011000
00011001100001111000011000011000011110011111111001100110000001111001100110011000011111100110011000000001100000011000011111100001100110011000
00011001100001111000011000011000011110011111111001100110000001111001100110011000011111100110011000000001100000011000011111100001100110011000
00011001100001111000011000011000011110011111111001100110000001111001100110011000011111100110011000000001100000011000011111100001100110011000
00011001100001111000011000011000011110011111111001100110000001111001100110011000011111100110011000000001100000011000011111100001100110011000
00011001100001111000011000011000011110011111111001100110000001111001100110011000011111100110011000000001100000011000011111100001100110011000
00011001100001111000011000011000011110011111111001100110000001111001100110011000011111100110011000000001100000011000011111100001100110011000
00011001100001111000011000011000011110011111111001100110000001111001100110011000011111100110011000000001100000011000011111100001100110011000
00000000000000000000000000000000000000000000000000000000000000000000000000000000000000000000000000000000000000000000000000000000000000000000
00000000000000000000000000000000000000000000000000000000000000000000000000000000000000000000000000000000000000000000000000000000000000000000
00000000000000000000000000000000000000000000000000000000000000000000000000000000000000000000000000000000000000000000000000000000000000000000
