P1
211 60
0000000000000000000000000000000000000000000000000000000000000000000000000000000000000000000000000000000000000000000000000000000000000000000000000000000000000000000000000000000000000000000000000000000000000000000
0000000000000000000000000000000000000000000000000000000000000000000000000000000000000000000000000000000000000000000000000000000000000000000000000000000000000000000000000000000000000000000000000000000000000000000
0000000000000000000000000000000000000000000000000000000000000000000000000000000000000000000000000000000000000000000000000000000000000000000000000000000000000000000000000000000000000000000000000000000000000000000
0000000000000000000000000000000000000000000000000000000000000000000000000000000000000000000000000000000000000000000000000000000000000000000000000000000000000000000000000000000000000000000000000000000000000000000
0000000000000000000000000000000000000000000000000000000000000000000000000000000000000000000000000000000000000000000000000000000000000000000000000000000000000000000000000000000000000000000000000000000000000000000
0000011100011100011100000000011111100000000011111100011100000011111100000011100011111111100011111100011100011100011111111100000011100011100000000011100000011111100011111100000011100000011111111100011100011100000
0000011100011100011100000000011111100000000011111100011100000011111100000011100011111111100011111100011100011100011111111100000011100011100000000011100000011111100011111100000011100000011111111100011100011100000
0000011100011100011100000000011111100000000011111100011100000011111100000011100011111111100011111100011100011100011111111100000011100011100000000011100000011111100011111100000011100000011111111100011100011100000
0000011100011100011100000000011111100000000011111100011100000011111100000011100011111111100011111100011100011100011111111100000011100011100000000011100000011111100011111100000011100000011111111100011100011100000
0000011100011100011100000000011111100000000011111100011100000011111100000011100011111111100011111100011100011100011111111100000011100011100000000011100000011111100011111100000011100000011111111100011100011100000
0000011100011100011100000000011111100000000011111100011100000011111100000011100011111111100011111100011100011100011111111100000011100011100000000011100000011111100011111100000011100000011111111100011100011100000
0000011100011100011100000000011111100000000011111100011100000011111100000011100011111111100011111100011100011100011111111100000011100011100000000011100000011111100011111100000011100000011111111100011100011100000
0000011100011100011100000000011111100000000011111100011100000011111100000011100011111111100011111100011100011100011111111100000011100011100000000011100000011111100011111100000011100000011111111100011100011100000
0000011100011100011100000000011111100000000011111100011100000011111100000011100011111111100011111100011100011100011111111100000011100011100000000011100000011111100011111100000011100000011111111100011100011100000
0000011100011100011100000000011111100000000011111100011100000011111100000011100011111111100011111100011100011100011111111100000011100011100000000011100000011111100011111100000011100000011111111100011100011100000
0000011100011100011100000000011111100000000011111100011100000011111100000011100011111111100011111100011100011100011111111100000011100011100000000011100000011111100011111100000011100000011111111100011100011100000
0000011100011100011100000000011111100000000011111100011100000011111100000011100011111111100011111100011100011100011111111100000011100011100000000011100000011111100011111100000011100000011111111100011100011100000
0000011100011100011100000000011111100000000011111100011100000011111100000011100011111111100011111100011100011100011111111100000011100011100000000011100000011111100011111100000011100000011111111100011100011100000
0000011100011100011100000000011111100000000011111100011100000011111100000011100011111111100011111100011100011100011111111100000011100011100000000011100000011111100011111100000011100000011111111100011100011100000
0000011100011100011100000000011111100000000011111100011100000011111100000011100011111111100011111100011100011100011111111100000011100011100000000011100000011111100011111100000011100000011111111100011100011100000
0000011100011100011100000000011111100000000011111100011100000011111100000011100011111111100011111100011100011100011111111100000011100011100000000011100000011111100011111100000011100000011111111100011100011100000
0000011100011100011100000000011111100000000011111100011100000011111100000011100011111111100011111100011100011100011111111100000011100011100000000011100000011111100011111100000011100000011111111100011100011100000
0000011100011100011100000000011111100000000011111100011100000011111100000011100011111111100011111100011100011100011111111100000011100011100000000011100000011111100011111100000011100000011111111100011100011100000
0000011100011100011100000000011111100000000011111100011100000011111100000011100011111111100011111100011100011100011111111100000011100011100000000011100000011111100011111100000011100000011111111100011100011100000
0000011100011100011100000000011111100000000011111100011100000011111100000011100011111111100011111100011100011100011111111100000011100011100000000011100000011111100011111100000011100000011111111100011100011100000
0000011100011100011100000000011111100000000011111100011100000011111100000011100011111111100011111100011100011100011111111100000011100011100000000011100000011111100011111100000011100000011111111100011100011100000
0000011100011100011100000000011111100000000011111100011100000011111100000011100011111111100011111100011100011100011111111100000011100011100000000011100000011111100011111100000011100000011111111100011100011100000
0000011100011100011100000000011111100000000011111100011100000011111100000011100011111111100011111100011100011100011111111100000011100011100000000011100000011111100011111100000011100000011111111100011100011100000
0000011100011100011100000000011111100000000011111100011100000011111100000011100011111111100011111100011100011100011111111100000011100011100000000011100000011111100011111100000011100000011111111100011100011100000
0000011100011100011100000000011111100000000011111100011100000011111100000011100011111111100011111100011100011100011111111100000011100011100000000011100000011111100011111100000011100000011111111100011100011100000
0000011100011100011100000000011111100000000011111100011100000011111100000011100011111111100011111100011100011100011111111100000011100011100000000011100000011111100011111100000011100000011111111100011100011100000
0000011100011100011100000000011111100000000011111100011100000011111100000011100011111111100011111100011100011100011111111100000011100011100000000011100000011111100011111100000011100000011111111100011100011100000
0000011100011100011100000000011111100000000011111100011100000011111100000011100011111111100011111100011100011100011111111100000011100011100000000011100000011111100011111100000011100000011111111100011100011100000
0000011100011100011100000000011111100000000011111100011100000011111100000011100011111111100011111100011100011100011111111100000011100011100000000011100000011111100011111100000011100000011111111100011100011100000
0000011100011100011100000000011111100000000011111100011100000011111100000011100011111111100011111100011100011100011111111100000011100011100000000011100000011111100011111100000011100000011111111100011100011100000
0000011100011100011100000000011111100000000011111100011100000011111100000011100011111111100011111100011100011100011111111100000011100011100000000011100000011111100011111100000011100000011111111100011100011100000
0000011100011100011100000000011111100000000011111100011100000011111100000011100011111111100011111100011100011100011111111100000011100011100000000011100000011111100011111100000011100000011111111100011100011100000
0000011100011100011100000000011111100000000011111100011100000011111100000011100011111111100011111100011100011100011111111100000011100011100000000011100000011111100011111100000011100000011111111100011100011100000
0000011100011100011100000000011111100000000011111100011100000011111100000011100011111111100011111100011100011100011111111100000011100011100000000011100000011111100011111100000011100000011111111100011100011100000
0000011100011100011100000000011111100000000011111100011100000011111100000011100011111111100011111100011100011100011111111100000011100011100000000011100000011111100011111100000011100000011111111100011100011100000
0000011100011100011100000000011111100000000011111100011100000011111100000011100011111111100011111100011100011100011111111100000011100011100000000011100000011111100011111100000011100000011111111100011100011100000
0000011100011100011100000000011111100000000011111100011100000011111100000011100011111111100011111100011100011100011111111100000011100011100000000011100000011111100011111100000011100000011111111100011100011100000
0000011100011100011100000000011111100000000011111100011100000011111100000011100011111111100011111100011100011100011111111100000011100011100000000011100000011111100011111100000011100000011111111100011100011100000
0000011100011100011100000000011111100000000011111100011100000011111100000011100011111111100011111100011100011100011111111100000011100011100000000011100000011111100011111100000011100000011111111100011100011100000
0000011100011100011100000000011111100000000011111100011100000011111100000011100011111111100011111100011100011100011111111100000011100011100000000011100000011111100011111100000011100000011111111100011100011100000
0000011100011100011100000000011111100000000011111100011100000011111100000011100011111111100011111100011100011100011111111100000011100011100000000011100000011111100011111100000011100000011111111100011100011100000
0000011100011100011100000000011111100000000011111100011100000011111100000011100011111111100011111100011100011100011111111100000011100011100000000011100000011111100011111100000011100000011111111100011100011100000
0000011100011100011100000000011111100000000011111100011100000011111100000011100011111111100011111100011100011100011111111100000011100011100000000011100000011111100011111100000011100000011111111100011100011100000
0000011100011100011100000000011111100000000011111100011100000011111100000011100011111111100011111100011100011100011111111100000011100011100000000011100000011111100011111100000011100000011111111100011100011100000
0000011100011100011100000000011111100000000011111100011100000011111100000011100011111111100011111100011100011100011111111100000011100011100000000011100000011111100011111100000011100000011111111100011100011100000
0000011100011100011100000000011111100000000011111100011100000011111100000011100011111111100011111100011100011100011111111100000011100011100000000011100000011111100011111100000011100000011111111100011100011100000
0000011100011100011100000000011111100000000011111100011100000011111100000011100011111111100011111100011100011100011111111100000011100011100000000011100000011111100011111100000011100000011111111100011100011100000
0000011100011100011100000000011111100000000011111100011100000011111100000011100011111111100011111100011100011100011111111100000011100011100000000011100000011111100011111100000011100000011111111100011100011100000
0000011100011100011100000000011111100000000011111100011100000011111100000011100011111111100011111100011100011100011111111100000011100011100000000011100000011111100011111100000011100000011111111100011100011100000
0000011100011100011100000000011111100000000011111100011100000011111100000011100011111111100011111100011100011100011111111100000011100011100000000011100000011111100011111100000011100000011111111100011100011100000
0000000000000000000000000000000000000000000000000000000000000000000000000000000000000000000000000000000000000000000000000000000000000000000000000000000000000000000000000000000000000000000000000000000000000000000
0000000000000000000000000000000000000000000000000000000000000000000000000000000000000000000000000000000000000000000000000000000000000000000000000000000000000000000000000000000000000000000000000000000000000000000
0000000000000000000000000000000000000000000000000000000000000000000000000000000000000000000000000000000000000000000000000000000000000000000000000000000000000000000000000000000000000000000000000000000000000000000
0000000000000000000000000000000000000000000000000000000000000000000000000000000000000000000000000000000000000000000000000000000000000000000000000000000000000000000000000000000000000000000000000000000000000000000
0000000000000000000000000000000000000000000000000000000000000000000000000000000000000000000000000000000000000000000000000000000000000000000000000000000000000000000000000000000000000000000000000000000000000000000
