P1
50 10
00000000000000000000000000000000000000000000000000
00000000000000000000000000000000000000000000000000
00000011100011111100000011111100011100000000000000
00000011100011111100000011111100011100000000000000
00000011100011111100000011111100011100000000000000
00000000000000000000000000000000000000000000000000
00000000000000000000000000000000000000000000000000
00000000000000000000000000000000000000000000000000
00000000000000000000000000000000000000000000000000
00000000000000000000000000000000000000000000000000